<svg width="100" height="100" viewBox="0 0 100 100" fill="none" xmlns="http://www.w3.org/2000/svg">
<rect width="100" height="100" rx="50" fill="#141414"/>
<ellipse cx="52" cy="49.5" rx="24.5" ry="19.5" fill="white"/>
<path d="M76.1 35C76.1 34.975 76.075 34.975 76.075 34.95C75.65 34.25 75.075 33.65 74.475 33.275L52.775 20.55C51.525 19.825 49.475 19.825 48.225 20.55L26.525 33.275C25.275 34 24.25 35.8 24.25 37.275V62.725C24.25 63.45 24.5 64.275 24.925 65C24.95 65.025 24.975 65.075 25 65.1C25.375 65.775 25.925 66.375 26.525 66.725L48.225 79.45C49.475 80.175 51.525 80.175 52.775 79.45L74.475 66.725C75.075 66.375 75.625 65.775 76 65.1C76.025 65.075 76.05 65.025 76.075 65C76.5 64.275 76.75 63.45 76.75 62.725V37.275C76.75 36.55 76.5 35.725 76.1 35ZM69.475 50.975V49H71.4V47.025H73.35V49H75.3V50.975H73.35V52.975H71.4V50.975H69.475ZM62.175 50.975V49H64.125V47.025H66.05V49H68V50.975H66.05V52.975H64.125V50.975H62.175ZM50.5 67.775C44.075 67.775 38.425 64.225 35.4 58.95C33.875 56.325 33 53.275 33 50C33 40.2 40.85 32.225 50.5 32.225C56.95 32.25 62.575 35.775 65.6 41.025L65.65 41.1L58.075 45.55C56.55 42.875 53.725 41.125 50.5 41.1C45.675 41.1 41.75 45.1 41.75 50C41.75 51.625 42.175 53.15 42.95 54.475C44.45 57.125 47.275 58.9 50.5 58.9C53.725 58.875 56.55 57.125 58.05 54.475L58.075 54.45L65.65 58.9C65.65 58.925 65.625 58.925 65.625 58.95C62.55 64.25 56.925 67.75 50.5 67.775Z" fill="#659AD2"/>
<path d="M42.95 54.475L50.5 50L58.05 54.475C56.55 57.125 53.725 58.875 50.5 58.9C47.275 58.9 44.45 57.125 42.95 54.475ZM76 65.1C75.625 65.775 75.075 66.375 74.475 66.725L52.775 79.45C51.525 80.175 49.475 80.175 48.225 79.45L26.525 66.725C25.925 66.375 25.375 65.775 25 65.1L35.4 58.95C38.425 64.225 44.075 67.775 50.5 67.775C56.925 67.75 62.55 64.25 65.625 58.95L76 65.1Z" fill="#004482"/>
<path d="M76.1 35C76.1 34.975 76.075 34.975 76.075 34.95L65.65 41.1L58.075 45.55L50.5 50L58.05 54.475L65.625 58.95L76 65.1C76.025 65.075 76.05 65.025 76.075 65C76.5 64.275 76.75 63.45 76.75 62.725V37.275C76.75 36.55 76.5 35.725 76.1 35ZM68 50.975H66.05V52.975H64.125V50.975H62.175V49H64.125V47.025H66.05V49H68V50.975ZM75.3 50.975H73.35V52.975H71.4V50.975H69.475V49H71.4V47.025H73.35V49H75.3V50.975Z" fill="#00599C"/>
</svg>
