<svg width="98" height="98" viewBox="0 0 98 98" fill="none" xmlns="http://www.w3.org/2000/svg">
<rect width="98" height="98" rx="49" fill="#141414"/>
<g clip-path="url(#clip0_76_229)">
<path d="M78.7546 52.8093C80.8543 36.3723 69.2463 21.345 52.8393 19.2454C36.4323 17.1457 21.345 28.7536 19.2454 45.1607C17.1457 61.5677 28.7536 76.625 45.1607 78.7546C61.5977 80.8543 76.625 69.2463 78.7546 52.8093Z" fill="#FF6C37"/>
<path d="M59.8281 38.2619L47.1704 50.9197L43.6011 47.3503C56.0488 34.9025 57.2786 35.9823 59.8281 38.2619Z" fill="white"/>
<path d="M47.1703 51.2196C47.0803 51.2196 47.0203 51.1896 46.9603 51.1296L43.361 47.5602C43.241 47.4403 43.241 47.2603 43.361 47.1403C56.0187 34.4826 57.3385 35.6824 60.008 38.082C60.068 38.1419 60.098 38.2019 60.098 38.2919C60.098 38.3819 60.068 38.4419 60.008 38.5019L47.3503 51.1296C47.3203 51.1896 47.2303 51.2196 47.1703 51.2196ZM44.0209 47.3503L47.1703 50.4997L59.3781 38.2919C57.1585 36.3123 55.6588 35.7124 44.0209 47.3503Z" fill="#FF6C37"/>
<path d="M50.7995 54.549L47.3501 51.0996L60.0078 38.4419C63.3972 41.8613 58.3281 47.4103 50.7995 54.549Z" fill="white"/>
<path d="M50.7999 54.849C50.7099 54.849 50.6499 54.819 50.5899 54.759L47.1406 51.3096C47.0806 51.2496 47.0806 51.1896 47.0806 51.0996C47.0806 51.0096 47.1106 50.9497 47.1706 50.8897L59.8283 38.232C59.9482 38.112 60.1282 38.112 60.2482 38.232C61.0281 38.9518 61.448 39.9716 61.418 41.0214C61.358 44.3508 57.5787 48.5801 51.0399 54.759C50.9499 54.819 50.8599 54.849 50.7999 54.849ZM47.7704 51.0996C49.6901 53.0493 50.5 53.8291 50.7999 54.1291C55.839 49.33 60.7281 44.4108 60.7581 41.0214C60.7881 40.2416 60.4882 39.4617 59.9782 38.8618L47.7704 51.0996Z" fill="#FF6C37"/>
<path d="M43.6611 47.4403L46.2107 49.9898C46.2707 50.0498 46.2707 50.1098 46.2107 50.1698C46.1807 50.1998 46.1807 50.1998 46.1507 50.1998L40.8716 51.3396C40.6017 51.3696 40.3617 51.1896 40.3017 50.9197C40.2718 50.7697 40.3317 50.6197 40.4217 50.5297L43.4812 47.4703C43.5412 47.4103 43.6311 47.3803 43.6611 47.4403Z" fill="white"/>
<path d="M40.7813 51.6396C40.3314 51.6396 40.0015 51.2796 40.0015 50.8297C40.0015 50.6198 40.0914 50.4098 40.2414 50.2598L43.3009 47.2004C43.4808 47.0504 43.7208 47.0504 43.9008 47.2004L46.4503 49.7499C46.6303 49.8999 46.6303 50.1698 46.4503 50.3498C46.3903 50.4098 46.3303 50.4398 46.2403 50.4698L40.9613 51.6096C40.9013 51.6096 40.8413 51.6396 40.7813 51.6396ZM43.5708 47.7703L40.6314 50.7097C40.5714 50.7697 40.5414 50.8597 40.6014 50.9497C40.6314 51.0397 40.7213 51.0697 40.8113 51.0397L45.7604 49.9599L43.5708 47.7703Z" fill="#FF6C37"/>
<path d="M66.5168 31.2433C64.5972 29.3836 61.5077 29.4436 59.648 31.3932C57.7884 33.3429 57.8484 36.4023 59.798 38.262C61.3877 39.7917 63.7873 40.0617 65.677 38.9219L62.2576 35.5025L66.5168 31.2433Z" fill="white"/>
<path d="M63.1576 39.9116C60.3081 39.9116 57.9985 37.6021 57.9985 34.7526C57.9985 31.9031 60.3081 29.5935 63.1576 29.5935C64.4774 29.5935 65.7671 30.1034 66.727 31.0332C66.787 31.0932 66.8169 31.1532 66.8169 31.2432C66.8169 31.3332 66.787 31.3932 66.727 31.4532L62.6777 35.5024L65.8571 38.6819C65.9771 38.8018 65.9771 38.9818 65.8571 39.1018C65.8271 39.1318 65.8271 39.1318 65.7971 39.1618C65.0173 39.6417 64.0874 39.9116 63.1576 39.9116ZM63.1576 30.2234C60.6381 30.2234 58.5984 32.263 58.6284 34.7826C58.6284 37.3021 60.6681 39.3417 63.1876 39.3118C63.8775 39.3118 64.5674 39.1618 65.1972 38.8318L62.0478 35.7124C61.9878 35.6524 61.9578 35.5924 61.9578 35.5024C61.9578 35.4125 61.9878 35.3525 62.0478 35.2925L66.0671 31.2732C65.2572 30.5833 64.2374 30.2234 63.1576 30.2234Z" fill="#FF6C37"/>
<path d="M66.607 31.3332L66.547 31.2732L62.2578 35.5024L65.6472 38.8918C65.9771 38.6819 66.3071 38.4419 66.577 38.1719C68.4967 36.2823 68.4967 33.2228 66.607 31.3332Z" fill="white"/>
<path d="M65.6768 39.2217C65.5869 39.2217 65.5269 39.1918 65.4669 39.1318L62.0475 35.7124C61.9875 35.6524 61.9575 35.5924 61.9575 35.5024C61.9575 35.4124 61.9875 35.3524 62.0475 35.2925L66.3067 31.0332C66.4267 30.9132 66.6067 30.9132 66.7267 31.0332L66.8166 31.0932C68.8263 33.1028 68.8263 36.3423 66.8466 38.3819C66.5467 38.6818 66.2168 38.9518 65.8568 39.1618C65.7668 39.1918 65.7068 39.2217 65.6768 39.2217ZM62.6774 35.5024L65.7068 38.5319C65.9468 38.3819 66.1868 38.1719 66.3667 37.992C68.0764 36.2823 68.1664 33.4928 66.5167 31.6931L62.6774 35.5024Z" fill="#FF6C37"/>
<path d="M60.3379 38.8019C59.618 38.082 58.4482 38.082 57.7284 38.8019L46.4204 50.1098L48.3101 51.9995L60.2779 41.5014C61.0578 40.8415 61.1178 39.6717 60.4579 38.8918C60.3979 38.8619 60.3679 38.8319 60.3379 38.8019Z" fill="white"/>
<path d="M48.2799 52.2995C48.19 52.2995 48.13 52.2695 48.07 52.2095L46.1803 50.3198C46.0603 50.1998 46.0603 50.0199 46.1803 49.8999L57.4883 38.5919C58.3281 37.7521 59.6779 37.7521 60.5177 38.5919C61.3576 39.4318 61.3576 40.7815 60.5177 41.6214C60.4877 41.6514 60.4577 41.6814 60.4277 41.7114L48.4599 52.2095C48.4299 52.2695 48.3699 52.2995 48.2799 52.2995ZM46.8402 50.1098L48.3099 51.5796L60.0678 41.2614C60.7277 40.7215 60.7877 39.7317 60.2478 39.0718C59.7079 38.412 58.7181 38.352 58.0582 38.8919C58.0282 38.9219 57.9982 38.9519 57.9382 38.9819L46.8402 50.1098Z" fill="#FF6C37"/>
<path d="M37.752 62.9775C37.632 63.0375 37.572 63.1575 37.602 63.2774L38.1119 65.4371C38.2319 65.737 38.0519 66.0969 37.722 66.1869C37.482 66.2769 37.2121 66.1869 37.0621 66.007L33.7627 62.7375L44.5308 51.9695L48.2501 52.0295L50.7696 54.549C50.1697 55.0589 46.5404 58.5683 37.752 62.9775Z" fill="white"/>
<path d="M37.5122 66.4869C37.2723 66.4869 37.0323 66.3969 36.8823 66.2169L33.6129 62.9475C33.5529 62.8875 33.5229 62.8275 33.5229 62.7376C33.5229 62.6476 33.5529 62.5876 33.6129 62.5276L44.381 51.7595C44.441 51.6995 44.531 51.6696 44.591 51.6696L48.3103 51.7295C48.4003 51.7295 48.4603 51.7595 48.5202 51.8195L51.0398 54.3391C51.0998 54.3991 51.1298 54.489 51.1298 54.579C51.1298 54.669 51.0998 54.729 51.0098 54.789L50.7998 54.969C47.6204 57.7585 43.3012 60.548 37.9322 63.2175L38.4421 65.3471C38.532 65.737 38.3521 66.1569 37.9921 66.3669C37.8122 66.4569 37.6622 66.4869 37.5122 66.4869ZM34.2128 62.7376L37.3023 65.797C37.3923 65.947 37.5722 66.007 37.7222 65.917C37.8722 65.827 37.9322 65.647 37.8422 65.4971L37.3323 63.3375C37.2723 63.0675 37.3923 62.8275 37.6322 62.7076C42.9413 60.038 47.2305 57.2785 50.3799 54.549L48.1603 52.3294L44.7109 52.2694L34.2128 62.7376Z" fill="#FF6C37"/>
<path d="M31.2131 65.3171L33.7926 62.7375L37.6319 66.5769L31.513 66.1569C31.2431 66.1269 31.0631 65.887 31.0931 65.617C31.0931 65.4971 31.1231 65.3771 31.2131 65.3171Z" fill="white"/>
<path d="M37.6321 66.8468L31.4832 66.4269C31.0332 66.3969 30.7333 66.0069 30.7633 65.557C30.7933 65.3771 30.8533 65.1971 31.0032 65.0771L33.5828 62.4976C33.7028 62.3776 33.8827 62.3776 34.0027 62.4976L37.842 66.3369C37.932 66.4269 37.962 66.5468 37.902 66.6668C37.842 66.7868 37.752 66.8468 37.6321 66.8468ZM33.7927 63.1575L31.4232 65.527C31.3332 65.587 31.3332 65.737 31.4232 65.797C31.4532 65.827 31.4832 65.857 31.5432 65.857L36.8522 66.2169L33.7927 63.1575Z" fill="#FF6C37"/>
<path d="M43.4811 53.3492C43.3011 53.3492 43.1812 53.1992 43.1812 53.0493C43.1812 52.9593 43.2111 52.8993 43.2711 52.8393L46.1806 49.9298C46.3006 49.8098 46.4806 49.8098 46.6005 49.9298L48.4902 51.8195C48.5802 51.9095 48.6102 51.9995 48.5802 52.1194C48.5502 52.2094 48.4602 52.2994 48.3402 52.3294L43.5411 53.3492C43.5111 53.3492 43.4811 53.3492 43.4811 53.3492ZM46.3906 50.5597L44.4109 52.5394L47.6503 51.8495L46.3906 50.5597Z" fill="#FF6C37"/>
<path d="M48.25 52.0295L44.9506 52.7493C44.7107 52.8093 44.4707 52.6594 44.4107 52.4194C44.3807 52.2694 44.4107 52.1194 44.5307 51.9995L46.3604 50.1698L48.25 52.0295Z" fill="white"/>
<path d="M44.891 53.0493C44.4711 53.0493 44.1411 52.7193 44.1411 52.2994C44.1411 52.0894 44.2311 51.9095 44.3511 51.7595L46.1807 49.9298C46.3007 49.8098 46.4807 49.8098 46.6007 49.9298L48.4903 51.8195C48.5803 51.9095 48.6103 51.9995 48.5803 52.1194C48.5503 52.2094 48.4603 52.2994 48.3404 52.3294L45.041 53.0493C44.981 53.0493 44.921 53.0493 44.891 53.0493ZM46.3907 50.5597L44.771 52.1794C44.711 52.2394 44.711 52.2994 44.741 52.3594C44.771 52.4194 44.831 52.4494 44.921 52.4494L47.6805 51.8495L46.3907 50.5597Z" fill="#FF6C37"/>
<path d="M66.6368 34.2127C66.5768 34.0328 66.3668 33.9428 66.1869 34.0028C66.0069 34.0628 65.9169 34.2727 65.9769 34.4527C65.9769 34.4827 66.0069 34.5127 66.0069 34.5427C66.1869 34.9026 66.1269 35.3525 65.8869 35.6825C65.7669 35.8324 65.7969 36.0424 65.9169 36.1624C66.0669 36.2824 66.2769 36.2524 66.3968 36.1024C66.8468 35.5325 66.9367 34.8126 66.6368 34.2127Z" fill="#FF6C37"/>
</g>
<defs>
<clipPath id="clip0_76_229">
<rect width="60" height="60" fill="white" transform="translate(19 19)"/>
</clipPath>
</defs>
</svg>
