<svg width="70" height="70" viewBox="0 0 70 70" fill="none" xmlns="http://www.w3.org/2000/svg">
<path d="M8.25289 22.7719H12.081V40.4922C10.1177 40.8652 8.67562 41.0145 7.10992 41.0145C2.43633 41.0145 0 38.9014 0 34.849C0 30.9465 2.58562 28.4112 6.58766 28.4112C7.20891 28.4112 7.68141 28.4604 8.25289 28.6097V22.7719ZM8.25289 31.6914C7.80555 31.5426 7.43258 31.4929 6.96062 31.4929C5.02141 31.4929 3.90305 32.6861 3.90305 34.7741C3.90305 36.8123 4.97164 37.9312 6.93547 37.9312C7.3582 37.9312 7.70656 37.9061 8.25344 37.8317L8.25289 31.6914Z" fill="#00F599"/>
<path d="M18.1712 28.6836V37.5583C18.1712 40.6153 17.9476 42.082 17.2765 43.3497C16.6547 44.5687 15.8344 45.3387 14.144 46.1841L10.5894 44.4938C12.2797 43.6981 13.0995 43.0024 13.6218 41.9333C14.1687 40.8395 14.3437 39.5719 14.3437 36.2403V28.6836H18.1712ZM14.3431 22.7921H18.1712V26.7198H14.3431V22.7921ZM20.484 29.5537C22.1738 28.7585 23.7898 28.4107 25.5551 28.4107C27.5184 28.4107 28.8112 28.9324 29.3833 29.9518C29.7059 30.5233 29.8055 31.2692 29.8055 32.8601V40.6405C28.0905 40.8893 25.9281 41.0632 24.3367 41.0632C21.1304 41.0632 19.6883 39.9443 19.6883 37.4588C19.6883 34.7736 21.6023 33.5311 26.3005 33.133V32.2881C26.3005 31.5919 25.9527 31.3436 24.9831 31.3436C23.5667 31.3436 21.9753 31.7412 20.4834 32.5123V29.5537H20.484ZM26.4744 35.6442C23.9391 35.8925 23.1188 36.2906 23.1188 37.2849C23.1188 38.0302 23.5913 38.3786 24.6353 38.3786C25.2068 38.3786 25.729 38.3294 26.4744 38.2047V35.6442ZM31.6708 29.2802C33.9327 28.6841 35.797 28.4107 37.6865 28.4107C39.6503 28.4107 41.0672 28.8575 41.9127 29.7281C42.7084 30.5484 42.9567 31.4426 42.9567 33.3572V40.8641H39.1286V33.507C39.1286 32.0403 38.6309 31.4934 37.2637 31.4934C36.742 31.4934 36.2701 31.5427 35.499 31.7669V40.8647H31.6708V29.2802ZM44.4442 42.9521C45.7868 43.6483 47.1288 43.9715 48.5458 43.9715C51.0559 43.9715 52.1251 42.9521 52.1251 40.5158V40.4414C51.3797 40.8144 50.6337 40.9637 49.6395 40.9637C46.2833 40.9637 44.1456 38.751 44.1456 35.2461C44.1456 30.8957 47.3027 28.4348 52.8956 28.4348C54.5362 28.4348 56.0527 28.6087 57.8924 28.9816L56.5815 31.7434C55.5622 31.5443 56.4995 31.716 55.7295 31.6416V32.0398L55.7787 33.6552L55.8039 35.7432C55.829 36.2655 55.829 36.7877 55.8537 37.3095V38.354C55.8537 41.6352 55.5802 43.1758 54.7599 44.4434C53.5666 46.3083 51.5038 47.2281 48.5704 47.2281C47.0785 47.2281 45.7868 47.0039 44.4437 46.4822V42.9516L44.4442 42.9521ZM52.0512 31.517H51.6531C50.9077 31.4923 50.0376 31.6909 49.4404 32.0638C48.5212 32.5861 48.0487 33.5306 48.0487 34.8731C48.0487 36.7872 48.9931 37.8809 50.6835 37.8809C51.2058 37.8809 51.6285 37.7814 52.1251 37.6327V36.3147C52.1251 35.8679 52.1004 35.3702 52.1004 34.8485L52.0758 33.0838L52.0507 31.8156V31.5175L52.0512 31.517ZM63.8353 28.3609C67.6634 28.3609 70.0002 30.7721 70.0002 34.6746C70.0002 38.6772 67.5644 41.1879 63.686 41.1879C59.8579 41.1879 57.4965 38.7762 57.4965 34.8988C57.4965 30.8711 59.9328 28.3604 63.8353 28.3604V28.3609ZM63.7604 38.1052C65.2271 38.1052 66.0977 36.8867 66.0977 34.7741C66.0977 32.6862 65.2522 31.4431 63.7861 31.4431C62.269 31.4431 61.399 32.6616 61.399 34.7736C61.399 36.8873 62.269 38.1052 63.7604 38.1052Z" fill="#00F599"/>
</svg>
