<svg width="60" height="60" viewBox="0 0 60 60" fill="none" xmlns="http://www.w3.org/2000/svg">
<path d="M58.4998 24.4219C56.4842 23.25 53.8123 23.1094 51.5623 23.7656C51.2811 21.3281 49.6873 19.2187 47.8123 17.7187L47.0623 17.1094L46.4061 17.8594C45.1404 19.3125 44.7654 21.75 44.9529 23.625C45.0936 24.9844 45.5154 26.3906 46.3592 27.5156C45.7029 27.8906 44.9998 28.4062 44.3436 28.6406C43.0311 29.1094 41.5779 29.5781 40.1717 29.5781H37.0311V22.9688H30.9373V11.25H23.9061V16.875H12.1873V22.9688H6.09356V29.5312H0.843562L0.749812 30.2344C0.515437 33.2344 0.890437 36.1406 2.15606 38.9062L2.67169 39.9375L2.71856 40.0312C6.42169 46.3125 12.8904 48.9375 19.9686 48.9375C33.6561 48.9375 44.9529 42.7969 50.1092 29.9062C53.5779 30.0938 57.1404 29.0625 58.8279 25.7344L59.2498 24.8906L58.4998 24.4219ZM13.1248 18.2812H17.8123V23.4375H13.1248V18.2812ZM19.2654 39C19.2654 39.7969 18.6092 40.4531 17.8123 40.4531C17.0154 40.4531 16.3592 39.7969 16.3592 39C16.3592 38.2031 17.0154 37.5469 17.8123 37.5469C18.6092 37.5938 19.2654 38.2031 19.2654 39ZM13.1248 24.375H17.8123V29.5312H13.1248V24.375ZM7.03106 24.375H12.1873V29.5312H7.03106V24.375ZM20.0154 47.9062C12.6092 47.8594 8.62481 45.375 5.34356 42.0938C6.32794 42.1406 7.26544 42.1875 8.10919 42.1875C8.85919 42.1875 9.60919 42.1875 10.3123 42.1406C12.1404 42.0469 13.7342 41.8125 15.0467 41.4375C16.1248 43.9219 18.0936 46.2188 21.6092 47.9062H20.0154ZM23.9061 29.5312H18.7498V24.375H23.9061V29.5312ZM23.9061 23.4375H18.7498V18.2812H23.9061V23.4375ZM29.9998 29.5312H24.8436V24.375H29.9998V29.5312ZM29.9998 23.4375H24.8436V18.2812H29.9998V23.4375ZM29.9998 17.3438H24.8436V12.1875H29.9998V17.3438ZM36.0936 29.5312H30.9373V24.375H36.0936V29.5312ZM18.1873 38.0625C18.0936 38.0156 17.9529 37.9688 17.8123 37.9688C17.2498 37.9688 16.7811 38.4375 16.7811 39C16.7811 39.5625 17.2498 40.0312 17.8123 40.0312C18.3748 40.0312 18.8436 39.5625 18.8436 39C18.8436 38.8594 18.7967 38.7188 18.7498 38.625C18.6561 38.7656 18.5623 38.8594 18.3748 38.8594C18.1404 38.8594 17.9529 38.6719 17.9529 38.4375C17.9998 38.25 18.0936 38.1094 18.1873 38.0625Z" fill="#019BC6"/>
</svg>
