<svg width="50" height="50" viewBox="0 0 50 50" fill="none" xmlns="http://www.w3.org/2000/svg">
<path d="M16.7756 1.74608H31.3815L16.2195 46.6695C16.0638 47.1313 15.7671 47.5326 15.3713 47.8168C14.9755 48.101 14.5004 48.2539 14.0131 48.2538H2.64645C2.27729 48.2537 1.91345 48.1658 1.58498 47.9973C1.25651 47.8288 0.972834 47.5846 0.757387 47.2849C0.542002 46.9851 0.401134 46.6382 0.346446 46.2732C0.291757 45.9081 0.324822 45.5352 0.442903 45.1854L14.5692 3.32999C14.725 2.86824 15.0217 2.46698 15.4175 2.18271C15.8133 1.89844 16.2883 1.74548 16.7756 1.74536V1.74608Z" fill="url(#paint0_linear_75_194)"/>
<path d="M38 31.8779H14.8387C14.6233 31.8775 14.4128 31.942 14.2346 32.063C14.0565 32.184 13.9189 32.3559 13.8399 32.5563C13.7608 32.7566 13.744 32.9761 13.7916 33.1862C13.8392 33.3962 13.949 33.5871 14.1067 33.7338L28.9895 47.6252C29.4228 48.0294 29.9934 48.2542 30.586 48.2541H43.7008L38 31.8779Z" fill="#0078D4"/>
<path d="M16.7757 1.74599C16.2831 1.74414 15.8027 1.89984 15.4049 2.19035C15.007 2.48086 14.7125 2.89097 14.5643 3.36077L0.460578 45.1473C0.334669 45.4983 0.295152 45.8745 0.34537 46.2441C0.395587 46.6136 0.534062 46.9656 0.749081 47.2703C0.964101 47.575 1.24934 47.8235 1.58068 47.9947C1.91201 48.1658 2.2797 48.2547 2.65263 48.2537H14.313C14.7472 48.1761 15.1531 47.9847 15.4891 47.6989C15.8252 47.4131 16.0794 47.0432 16.2257 46.6271L19.0381 38.3381L29.0847 47.7084C29.5056 48.0567 30.0337 48.2493 30.58 48.2537H43.6461L37.9154 31.8776L21.2101 31.8815L31.4344 1.74599H16.7757Z" fill="url(#paint1_linear_75_194)"/>
<path d="M35.431 3.32773C35.2755 2.86663 34.9792 2.46596 34.5838 2.18219C34.1885 1.89841 33.7141 1.74584 33.2275 1.74597H16.9497C17.4362 1.74602 17.9105 1.89867 18.3058 2.18242C18.701 2.46618 18.9973 2.86674 19.1529 3.32773L33.2795 45.185C33.3978 45.5348 33.431 45.9078 33.3765 46.273C33.3219 46.6382 33.1812 46.9852 32.9658 47.2852C32.7505 47.5852 32.4668 47.8296 32.1382 47.9982C31.8096 48.1667 31.4456 48.2545 31.0764 48.2544H47.3549C47.724 48.2542 48.0878 48.1661 48.4161 47.9974C48.7445 47.8288 49.028 47.5844 49.2432 47.2845C49.4585 46.9846 49.5992 46.6378 49.6539 46.2727C49.7086 45.9076 49.6756 45.5348 49.5577 45.185L35.431 3.32773Z" fill="url(#paint2_linear_75_194)"/>
<defs>
<linearGradient id="paint0_linear_75_194" x1="22.0992" y1="5.19248" x2="6.93075" y2="50.0032" gradientUnits="userSpaceOnUse">
<stop stop-color="#114A8B"/>
<stop offset="1" stop-color="#0669BC"/>
</linearGradient>
<linearGradient id="paint1_linear_75_194" x1="26.8374" y1="26.0754" x2="23.3289" y2="27.2616" gradientUnits="userSpaceOnUse">
<stop stop-opacity="0.3"/>
<stop offset="0.071" stop-opacity="0.2"/>
<stop offset="0.321" stop-opacity="0.1"/>
<stop offset="0.623" stop-opacity="0.05"/>
<stop offset="1" stop-opacity="0"/>
</linearGradient>
<linearGradient id="paint2_linear_75_194" x1="24.9077" y1="3.88525" x2="41.5581" y2="48.2447" gradientUnits="userSpaceOnUse">
<stop stop-color="#3CCBF4"/>
<stop offset="1" stop-color="#2892DF"/>
</linearGradient>
</defs>
</svg>
