<svg width="60" height="60" viewBox="0 0 60 60" fill="none" xmlns="http://www.w3.org/2000/svg">
<path d="M29.7146 5.74128C27.7356 5.75065 25.8465 5.91893 24.1834 6.21331C19.2849 7.07862 18.3962 8.88987 18.3962 12.2307V16.6421H29.971V18.1125H14.0518C10.6881 18.1125 7.74244 20.1342 6.82088 23.9817C5.75775 28.3903 5.71088 31.1419 6.82088 35.7455C7.64353 39.1725 9.60853 41.6138 12.9728 41.6138H16.9529V36.3253C16.9529 32.5046 20.2581 29.1347 24.1838 29.1347H35.7456C38.964 29.1347 41.5328 26.4844 41.5328 23.2528V12.2311C41.5328 9.09378 38.8862 6.73737 35.7456 6.21378C33.7562 5.88284 31.6932 5.73237 29.7146 5.74128ZM23.4549 9.28925C24.6503 9.28925 25.6271 10.2816 25.6271 11.5022C25.6271 12.7177 24.6507 13.7007 23.4549 13.7007C22.2549 13.7007 21.2832 12.7177 21.2832 11.5022C21.2828 10.2816 22.2549 9.28925 23.4549 9.28925Z" fill="url(#paint0_linear_71_297)"/>
<path d="M42.9758 18.1125V23.2528C42.9758 27.2372 39.5971 30.5911 35.7449 30.5911H24.1832C21.0163 30.5911 18.396 33.3019 18.396 36.4735V47.4961C18.396 50.6325 21.1232 52.478 24.1832 53.3775C27.8469 54.4543 31.3607 54.6493 35.7449 53.3775C38.6587 52.5333 41.5321 50.8355 41.5321 47.4961V43.0842H29.9708V41.6133H47.3202C50.684 41.6133 51.9383 39.2672 53.1083 35.745C54.3168 32.1193 54.2647 28.6322 53.1083 23.9813C52.2768 20.6321 50.6891 18.1121 47.3202 18.1121H42.9758V18.1125ZM36.4729 46.0252C37.6733 46.0252 38.6451 47.0082 38.6451 48.2246C38.6451 49.4443 37.6729 50.4366 36.4729 50.4366C35.2776 50.4366 34.3012 49.4443 34.3012 48.2246C34.3012 47.0082 35.2776 46.0252 36.4729 46.0252Z" fill="url(#paint1_linear_71_297)"/>
<path opacity="0.444" d="M45.6136 56.0611C45.6136 57.7219 38.6686 59.0686 30.1022 59.0686C21.5353 59.0686 14.5903 57.7219 14.5903 56.0611C14.5903 54.3998 21.5349 53.0531 30.1022 53.0531C38.6686 53.0531 45.6136 54.3994 45.6136 56.0611Z" fill="url(#paint2_radial_71_297)"/>
<defs>
<linearGradient id="paint0_linear_71_297" x1="4.84551" y1="7.12064" x2="31.5426" y2="29.8878" gradientUnits="userSpaceOnUse">
<stop stop-color="#5A9FD4"/>
<stop offset="1" stop-color="#306998"/>
</linearGradient>
<linearGradient id="paint1_linear_71_297" x1="41.5869" y1="44.0402" x2="32.0129" y2="30.6142" gradientUnits="userSpaceOnUse">
<stop stop-color="#FFD43B"/>
<stop offset="1" stop-color="#FFE873"/>
</linearGradient>
<radialGradient id="paint2_radial_71_297" cx="0" cy="0" r="1" gradientUnits="userSpaceOnUse" gradientTransform="translate(30.0395 55.975) rotate(-90) scale(3.00859 13.2252)">
<stop stop-color="#B8B8B8" stop-opacity="0.498"/>
<stop offset="1" stop-color="#7F7F7F" stop-opacity="0"/>
</radialGradient>
</defs>
</svg>
