<svg width="60" height="60" viewBox="0 0 60 60" fill="none" xmlns="http://www.w3.org/2000/svg">
<path d="M7.02439 12.9901C6.9133 9.7956 9.40189 6.84998 12.7661 6.84998H47.238C50.6022 6.84998 53.0908 9.7956 52.9797 12.9901C52.8728 16.0586 53.0116 20.0336 54.0119 23.2745C55.0155 26.5258 56.7077 28.5803 59.4794 28.8447V31.8386C56.7077 32.1029 55.0155 34.1575 54.0119 37.4087C53.0116 40.6497 52.8728 44.6247 52.9797 47.6931C53.0908 50.8876 50.6022 53.8328 47.238 53.8328H12.7661C9.40189 53.8328 6.9133 50.8872 7.02439 47.6931C7.13127 44.6247 6.99252 40.6497 5.99174 37.4087C4.98861 34.1579 3.29174 32.1029 0.52002 31.8386V28.8447C3.29174 28.5808 4.98861 26.5258 5.99174 23.2745C6.99252 20.0336 7.1308 16.0586 7.02439 12.9901Z" fill="url(#paint0_linear_70_127)"/>
<g filter="url(#filter0_d_70_127)">
<path d="M31.4574 43.0012C36.9038 43.0012 40.1858 40.3345 40.1858 35.936C40.1858 32.6112 37.8441 30.2041 34.3669 29.8231V29.6846C36.9216 29.269 38.9263 26.8966 38.9263 24.2472C38.9263 20.4721 35.9459 18.013 31.4042 18.013H21.1855V43.0012H31.4574ZM25.1595 21.182H30.4463C33.3203 21.182 34.9523 22.4634 34.9523 24.7839C34.9523 27.2603 33.0542 28.6455 29.6125 28.6455H25.1595V21.182ZM25.1595 39.8322V31.6067H30.4107C34.1717 31.6067 36.1232 32.992 36.1232 35.6935C36.1232 38.3949 34.225 39.8322 30.6413 39.8322H25.1595Z" fill="url(#paint1_linear_70_127)"/>
<path d="M31.4574 43.0012C36.9038 43.0012 40.1858 40.3345 40.1858 35.936C40.1858 32.6112 37.8441 30.2041 34.3669 29.8231V29.6846C36.9216 29.269 38.9263 26.8966 38.9263 24.2472C38.9263 20.4721 35.9459 18.013 31.4042 18.013H21.1855V43.0012H31.4574ZM25.1595 21.182H30.4463C33.3203 21.182 34.9523 22.4634 34.9523 24.7839C34.9523 27.2603 33.0542 28.6455 29.6125 28.6455H25.1595V21.182ZM25.1595 39.8322V31.6067H30.4107C34.1717 31.6067 36.1232 32.992 36.1232 35.6935C36.1232 38.3949 34.225 39.8322 30.6413 39.8322H25.1595Z" stroke="white" stroke-width="0.24566"/>
</g>
<defs>
<filter id="filter0_d_70_127" x="17.1319" y="14.9423" width="27.1072" height="33.095" filterUnits="userSpaceOnUse" color-interpolation-filters="sRGB">
<feFlood flood-opacity="0" result="BackgroundImageFix"/>
<feColorMatrix in="SourceAlpha" type="matrix" values="0 0 0 0 0 0 0 0 0 0 0 0 0 0 0 0 0 0 127 0" result="hardAlpha"/>
<feOffset dy="0.98264"/>
<feGaussianBlur stdDeviation="1.96528"/>
<feColorMatrix type="matrix" values="0 0 0 0 0 0 0 0 0 0 0 0 0 0 0 0 0 0 0.15 0"/>
<feBlend mode="normal" in2="BackgroundImageFix" result="effect1_dropShadow_70_127"/>
<feBlend mode="normal" in="SourceGraphic" in2="effect1_dropShadow_70_127" result="shape"/>
</filter>
<linearGradient id="paint0_linear_70_127" x1="9.28122" y1="8.0934" x2="60.8008" y2="48.9903" gradientUnits="userSpaceOnUse">
<stop stop-color="#9013FE"/>
<stop offset="1" stop-color="#6610F2"/>
</linearGradient>
<linearGradient id="paint1_linear_70_127" x1="22.9833" y1="19.6574" x2="34.4986" y2="39.1332" gradientUnits="userSpaceOnUse">
<stop stop-color="white"/>
<stop offset="1" stop-color="#F1E5FC"/>
</linearGradient>
</defs>
</svg>
