<svg width="40" height="40" viewBox="0 0 40 40" fill="none" xmlns="http://www.w3.org/2000/svg">
<path d="M38.7904 19.6937C38.7904 17.29 36.9691 15.2672 34.5241 14.69L40.0001 0.0352783H12.8626L18.351 14.7362C15.9829 15.36 14.2372 17.3475 14.2372 19.7059C14.2372 21.439 15.1929 22.9759 16.6444 23.9234C16.0719 24.6631 15.4091 25.3453 14.6582 25.9922C13.2447 27.1947 11.6772 28.1187 9.98412 28.7315C8.456 27.7953 7.79412 26.1425 8.39225 24.6628C10.7226 24.0159 12.4172 22.0397 12.4172 19.7168C12.4172 16.8628 9.85725 14.5506 6.7235 14.5506C3.57787 14.5506 1.01943 16.8737 1.01943 19.7287C1.01943 21.139 1.65537 22.4328 2.67475 23.3568C2.58537 23.5193 2.49662 23.6803 2.40725 23.8537C1.55412 25.4493 0.585997 27.2522 0.215997 29.275C-0.52244 33.319 0.687248 36.5675 3.6035 38.4047C5.24662 39.4337 7.05569 39.9537 9.00412 39.9537C12.3522 39.9537 15.7532 38.4278 19.0382 36.9481C21.3819 35.8972 23.8013 34.7984 26.1829 34.2675C27.0619 34.0709 27.9785 33.955 28.9466 33.8281C30.9069 33.574 32.9322 33.3081 34.7535 32.3487C36.8801 31.2281 38.3316 29.3553 38.7526 27.2059C39.0697 25.5528 38.7526 23.889 37.9369 22.4328C38.4941 21.6282 38.7918 20.6724 38.7901 19.6937H38.7904ZM36.3076 19.6937C36.3076 21.3 34.8682 22.6062 33.0982 22.6062C31.3282 22.6062 29.8888 21.3 29.8888 19.6937C29.8888 19.1734 30.0416 18.6768 30.3088 18.2493C30.4104 18.0868 30.5385 17.9259 30.6651 17.7868C30.7992 17.6438 30.9488 17.5161 31.111 17.4059L31.1244 17.3937C31.2257 17.3243 31.3404 17.2547 31.4551 17.1862C31.4551 17.1862 31.4676 17.1862 31.4676 17.174C31.5185 17.1509 31.5697 17.1165 31.6213 17.0934C31.6335 17.0934 31.6457 17.0812 31.6588 17.0812C31.7104 17.0593 31.7738 17.0362 31.8369 17.0128C31.8972 16.9917 31.9567 16.9686 32.0154 16.9434C32.0279 16.9434 32.041 16.9309 32.0532 16.9309C32.1044 16.9203 32.1557 16.8968 32.206 16.8859C32.2194 16.8859 32.2451 16.8737 32.2572 16.8737C32.3207 16.8628 32.3719 16.8506 32.4354 16.8393H32.4488L32.6394 16.804C32.6526 16.804 32.6769 16.804 32.6904 16.7931C32.7416 16.7931 32.7919 16.7809 32.8432 16.7809H32.9066C32.9701 16.7809 33.0347 16.77 33.1104 16.77H33.2763C33.3263 16.77 33.3657 16.77 33.4157 16.7809H33.4413C33.5438 16.7934 33.6451 16.804 33.7476 16.8275C35.1991 17.1043 36.3076 18.2837 36.3076 19.6937ZM16.4147 2.34622H36.4466L31.8494 14.6547C31.6588 14.69 31.4672 14.7472 31.2769 14.8047L26.4382 5.8484L21.5857 14.7468C21.3941 14.6897 21.1904 14.6543 20.9876 14.62L16.4147 2.34622ZM25.5201 18.6875C25.2785 17.6009 24.6669 16.6306 23.8013 15.914L26.4382 11.0837L29.0991 16.0178C28.3094 16.7343 27.7366 17.6475 27.5072 18.6875H25.5201ZM19.1407 16.8625C19.2041 16.85 19.2554 16.8393 19.3188 16.8272H19.3566C19.4079 16.8162 19.4594 16.8162 19.5094 16.8037H19.5607C19.6119 16.8037 19.6497 16.7928 19.701 16.7928H20.1979C20.2479 16.7928 20.2869 16.8037 20.3247 16.8037C20.3504 16.8037 20.3626 16.8037 20.3882 16.8162C20.4394 16.8272 20.4772 16.8272 20.5288 16.8393C20.5407 16.8393 20.5541 16.8393 20.5797 16.8503C20.6435 16.8625 20.7069 16.8734 20.7579 16.8856H20.7704C20.8216 16.8965 20.8729 16.9075 20.9229 16.9309C20.9363 16.9309 20.9485 16.9431 20.9741 16.9431C21.0119 16.954 21.0632 16.9662 21.101 16.9893C21.1144 16.9893 21.1266 17.0003 21.1401 17.0003C21.1901 17.0237 21.2416 17.0359 21.2929 17.059H21.3051C21.3685 17.0809 21.4197 17.104 21.471 17.1397H21.4835C21.5344 17.1628 21.5857 17.1968 21.6369 17.22C21.6494 17.22 21.6494 17.2325 21.6613 17.2325C21.7126 17.2543 21.7507 17.2897 21.8019 17.3128L21.8154 17.3237C21.9679 17.4278 22.1082 17.5437 22.2472 17.6597L22.2607 17.6706C22.3879 17.7975 22.5147 17.9365 22.6172 18.0868C22.9482 18.5493 23.1397 19.0928 23.1397 19.6822C23.1397 21.2887 21.7004 22.5937 19.9304 22.5937C18.1604 22.5937 16.721 21.2887 16.721 19.6822C16.7079 18.3297 17.7394 17.1859 19.1407 16.8625ZM6.60881 16.7806C8.37912 16.7806 9.81818 18.0868 9.81818 19.6931C9.81818 21.2997 8.37912 22.6056 6.60881 22.6056C4.83881 22.6056 3.39944 21.2997 3.39944 19.6931C3.39944 18.0868 4.83881 16.7806 6.60881 16.7806ZM36.2307 26.8015C35.951 28.2797 34.9438 29.575 33.4669 30.3487C32.0788 31.0775 30.3722 31.3081 28.5766 31.539C27.5966 31.6659 26.5651 31.805 25.5713 32.0247C22.9226 32.6143 20.376 33.7703 17.9054 34.8787C14.7472 36.3009 11.7663 37.6412 9.00412 37.6412C7.56475 37.6412 6.27819 37.2715 5.05631 36.4975C2.25475 34.7409 2.39381 31.4475 2.726 29.6443C3.031 27.9562 3.88443 26.3731 4.69975 24.8593C4.74975 24.7665 4.78881 24.6859 4.83881 24.5931C5.11975 24.6859 5.41256 24.7556 5.71787 24.8018C5.23444 27.2518 6.60881 29.7825 9.2835 31.0312L9.76787 31.2618L10.2894 31.0884C12.5185 30.3718 14.5813 29.205 16.4026 27.6447C17.4341 26.7659 18.3132 25.8187 19.0516 24.7897C19.3444 24.8362 19.6376 24.8484 19.9304 24.8484C22.5794 24.8484 24.8072 23.1953 25.4444 20.9762H27.5832C28.2204 23.2065 30.4491 24.8481 33.0982 24.8481C34.1554 24.8481 35.1357 24.5825 35.9754 24.1318C36.3076 24.9984 36.4088 25.8993 36.2307 26.8015Z" fill="#99425B"/>
</svg>
